<mxfile host="app.diagrams.net" modified="2023-09-25T07:21:04.802Z" agent="Mozilla/5.0 (Windows NT 10.0; Win64; x64; rv:109.0) Gecko/20100101 Firefox/118.0" version="21.8.2" etag="s1GMkTkgsrz-dyFLiaNt" type="github">
  <diagram name="Page-1" id="bzj445RVNB7UyQZ4POsY">
    <mxGraphModel>
      <root>
        <mxCell id="0" />
        <mxCell id="1" parent="0" />
      </root>
    </mxGraphModel>
  </diagram>
</mxfile>
